<svg viewBox="0 0 48 44" version="1.1" xmlns="http://www.w3.org/2000/svg" xmlns:xlink="http://www.w3.org/1999/xlink">
      <g id="Identity" stroke="none" stroke-width="1" fill="none" fill-rule="evenodd">
        <g id="Prelaunch-Landing-Page" transform="translate(-735.000000, -150.000000)" fill="#fff">
          <g id="Right-side" transform="translate(735.000000, 150.000000)">
            <path d="M33.7495861,41.1843904 C30.4474947,42.988104 26.5447088,44 22.252732,44 C9.42375485,44 0,34.7346276 0,22.3016065 C0,9.71020294 9.42375485,0.365639301 22.252732,0.365639301 C35.2400917,0.365639301 44.6638465,9.71020294 44.6638465,22.3016065 C44.6638465,27.1920868 43.2057923,31.5924649 40.6463266,35.1316395 C40.3327779,39.3902761 48,43.6437796 48,43.6437796 C48,43.6437796 40.6524437,45.175502 33.7495861,41.1843904 Z M12.8289772,22.3016065 C12.8289772,16.8374125 16.6301556,12.4818955 22.252732,12.4818955 C28.0336909,12.4818955 31.8348693,16.8374125 31.8348693,22.3016065 C31.8348693,27.607418 28.0336909,31.962935 22.252732,31.962935 C16.6301556,31.962935 12.8289772,27.607418 12.8289772,22.3016065 Z" id="Sygnet"></path>
          </g>
        </g>
      </g>
    </svg>